<svg xmlns="http://www.w3.org/2000/svg" fill="none" viewBox="0 0 20 20">
    <path fill="currentColor" d="M.007.277A.225.225 0 0 1 .288.01L5.15 1.395c.044 0 .086.012.123.036l9.589 2.734c.04 0 .079.012.113.032l4.862 1.386c.167.048.219.257.094.376L5.259 19.937a.226.226 0 0 1-.376-.107L2.45 10.072a.233.233 0 0 1-.007-.031L.007.277ZM4.17 15.112l1.057 4.235 3.18-3.03-4.237-1.205Zm3.277-3.35-3.08 2.94 4.103 1.167-1.023-4.107Zm.457-.031 1.02 4.094 3.07-2.926-4.09-1.168Zm-4.927-1.406 1.024 4.106 3.076-2.936-4.1-1.17Zm8.101-2.034L7.95 11.28l4.17 1.19-1.04-4.178Zm.439-.106 1.04 4.177 3.138-2.989-4.178-1.188Zm-5.28-1.28-3.136 2.99 4.178 1.192-1.042-4.182Zm.437-.113L7.698 10.9l3.08-2.94-4.103-1.167ZM1.749 5.398l1.04 4.174 3.134-2.987L1.75 5.398Zm12.984-.58-3.08 2.94 4.102 1.167-1.022-4.107Zm.44-.1 1.037 4.165 3.126-2.977-4.163-1.188ZM9.87 3.441 6.805 6.364l4.084 1.161L9.87 3.441Zm.438-.11 1.024 4.112 3.08-2.941-4.104-1.17ZM5.026 2.05l-3.08 2.94L6.05 6.155 5.026 2.05Zm.44-.098 1.021 4.096 3.072-2.93-4.092-1.166ZM.54.546l1.04 4.173 3.127-2.985L.54.546Z"/>
</svg>